<?xml version="1.0" encoding="utf-8"?>
<!-- Generator: Adobe Illustrator 18.0.0, SVG Export Plug-In . SVG Version: 6.00 Build 0)  -->
<!DOCTYPE svg PUBLIC "-//W3C//DTD SVG 1.1//EN" "http://www.w3.org/Graphics/SVG/1.1/DTD/svg11.dtd">
<svg version="1.1" id="Layer_1" xmlns="http://www.w3.org/2000/svg" xmlns:xlink="http://www.w3.org/1999/xlink" x="0px" y="0px"
	 viewBox="0 0 118.7 117.6" enable-background="new 0 0 118.7 117.6" xml:space="preserve">
<path d="M116.9,36.7c-2.3-3.2-6.7-3.9-9.8-1.6l-48,34.5l-48-34.5c-3.1-2.3-7.5-1.5-9.8,1.6c-2.3,3.2-1.5,7.5,1.6,9.8L55,83.9
	c0.1,0.1,0.2,0.1,0.3,0.2c0.4,0.3,0.9,0.5,1.4,0.7c0.2,0.1,0.4,0.1,0.5,0.2c0.6,0.2,1.2,0.3,1.9,0.3c0,0,0,0,0,0c0,0,0,0,0,0
	c0,0,0,0,0,0c0,0,0,0,0,0c0.6,0,1.3-0.1,1.9-0.3c0.2-0.1,0.4-0.1,0.5-0.2c0.5-0.2,0.9-0.4,1.4-0.7c0.1-0.1,0.2-0.1,0.3-0.2
	l52.1-37.4C118.5,44.3,119.2,39.9,116.9,36.7z"/>
</svg>
