<?xml version="1.0" encoding="utf-8"?>
<!-- Generator: Adobe Illustrator 18.0.0, SVG Export Plug-In . SVG Version: 6.00 Build 0)  -->
<!DOCTYPE svg PUBLIC "-//W3C//DTD SVG 1.1//EN" "http://www.w3.org/Graphics/SVG/1.1/DTD/svg11.dtd">
<svg version="1.1" id="Layer_1" xmlns="http://www.w3.org/2000/svg" xmlns:xlink="http://www.w3.org/1999/xlink" x="0px" y="0px"
	 viewBox="0 0 599 599" enable-background="new 0 0 599 599" xml:space="preserve">
<g>
	<path fill="none" stroke="#000000" stroke-width="45" stroke-linejoin="round" stroke-miterlimit="10" d="M575.3,351.4V247.1h-67.1
		c-5.5-20.8-14-40.3-25-58.1l48.1-48.1l-73.7-73.7L409,115.8c-17.7-10.6-37.1-18.7-57.6-24V23.2H247.1v67.6
		c-21.1,4.9-40.9,12.9-59.2,23.5l-47.1-47.1l-73.7,73.7l45.5,45.5C101,205,92,225.4,86.2,247.1h-63v104.2h60.9
		c5.1,22.8,13.8,44.3,25.5,63.8l-42.4,42.4l73.7,73.7l41.9-41.9c19.6,12.1,41.3,21.2,64.3,26.6v59.3h104.2V515
		c22.5-5.8,43.6-15,62.8-27.1l43.5,43.5l73.7-73.7l-45-45c10.9-18.8,19-39.4,23.9-61.2H575.3z M299.2,401.4
		c-56.4,0-102.2-45.7-102.2-102.2s45.7-102.2,102.2-102.2s102.2,45.7,102.2,102.2S355.7,401.4,299.2,401.4z"/>
	
		<circle fill="none" stroke="#000000" stroke-width="45" stroke-linejoin="round" stroke-miterlimit="10" cx="299.2" cy="299.2" r="102.2"/>
</g>
</svg>
