<?xml version="1.0" encoding="utf-8"?>
<!-- Generator: Adobe Illustrator 18.0.0, SVG Export Plug-In . SVG Version: 6.00 Build 0)  -->
<!DOCTYPE svg PUBLIC "-//W3C//DTD SVG 1.1//EN" "http://www.w3.org/Graphics/SVG/1.1/DTD/svg11.dtd">
<svg version="1.1" id="Layer_1" xmlns="http://www.w3.org/2000/svg" xmlns:xlink="http://www.w3.org/1999/xlink" x="0px" y="0px"
	 viewBox="0 0 116.8 116.8" enable-background="new 0 0 116.8 116.8" xml:space="preserve">
<g>
	<path d="M80.3,17.2c-0.7-0.7-1.8-1.2-2.7-1.1c-1,0-2,0.4-2.7,1.1L2.4,89.7c-1,1-1.3,2.3-1,3.5v18.3c0,2.1,1.7,3.9,3.9,3.9h18.1
		c0.4,0.1,0.7,0.2,1.1,0.2c0,0,0,0,0,0c1,0,2-0.4,2.7-1.1L99.5,42c1.5-1.5,1.5-4,0-5.5L80.3,17.2z M24.5,106.3L12.3,94.1l-1.6-1.6
		l66.9-67l13.8,13.8L24.5,106.3z"/>
	<path d="M116.2,24.6c-0.1-0.3-1.5-7.3-9.3-15.1c-7.8-7.8-14.9-8.9-15.2-9c-0.8-0.1-1.5,0.1-2.1,0.7l-7.6,7.6
		c-0.9,0.9-0.9,2.5,0,3.4l22.3,22.3c0.5,0.5,1.1,0.7,1.7,0.7c0.6,0,1.3-0.3,1.7-0.7l7.8-7.8C116.1,26.2,116.4,25.4,116.2,24.6z"/>
</g>
</svg>
